<?xml version="1.0" standalone="no"?>
<!DOCTYPE svg PUBLIC "-//W3C//DTD SVG 20010904//EN"
 "http://www.w3.org/TR/2001/REC-SVG-20010904/DTD/svg10.dtd">
<svg version="1.0" xmlns="http://www.w3.org/2000/svg"
 width="303.000000pt" height="166.000000pt" viewBox="0 0 303.000000 166.000000"
 preserveAspectRatio="xMidYMid meet">

<g transform="translate(0.000000,166.000000) scale(0.100000,-0.100000)"
fill="#000000" stroke="none">
<path d="M149 1644 c-56 -17 -123 -85 -138 -140 -14 -51 -15 -755 -1 -805 17
-61 52 -102 109 -131 l55 -28 1341 0 1341 0 55 28 c57 29 92 70 109 131 14 50
13 754 -1 805 -16 58 -81 123 -142 141 -74 22 -2657 21 -2728 -1z m2731 -90
c15 -9 36 -31 46 -48 18 -29 19 -56 19 -413 0 -370 -1 -382 -21 -410 -44 -61
-58 -63 -396 -63 l-308 0 0 157 c0 132 -3 159 -17 175 -15 17 -57 18 -930 18
-611 0 -921 -3 -934 -10 -18 -10 -19 -23 -19 -175 l0 -165 -62 0 c-72 0 -121
20 -152 63 -20 28 -21 40 -21 410 0 356 1 384 19 413 41 69 -72 63 1409 64
1222 0 1341 -1 1367 -16z m-750 -799 l0 -125 -865 0 -865 0 0 125 0 125 865 0
865 0 0 -125z"/>
<path d="M347 1392 c-23 -25 -21 -38 5 -56 34 -24 2322 -24 2356 0 26 18 28
37 6 58 -14 14 -135 16 -1183 16 -1119 0 -1169 -1 -1184 -18z"/>
<path d="M346 1194 c-22 -21 -20 -40 6 -58 34 -24 2322 -24 2356 0 26 18 28
37 6 58 -14 14 -135 16 -1184 16 -1049 0 -1170 -2 -1184 -16z"/>
<path d="M2386 848 c-9 -12 -16 -30 -16 -40 0 -24 35 -58 60 -58 27 0 60 35
60 63 0 53 -75 77 -104 35z"/>
<path d="M2646 857 c-26 -19 -24 -67 4 -89 27 -22 39 -22 68 -2 42 29 18 104
-34 104 -11 0 -28 -6 -38 -13z"/>
<path d="M535 427 c-17 -13 -17 -15 6 -46 33 -46 30 -87 -15 -162 -60 -101
-58 -161 7 -204 45 -29 87 6 53 44 -30 35 -27 57 19 144 50 96 55 133 24 183
-31 52 -61 64 -94 41z"/>
<path d="M896 427 c-17 -12 -17 -15 8 -51 14 -22 26 -47 26 -56 0 -10 -20 -56
-45 -103 -25 -47 -45 -99 -45 -115 0 -31 29 -75 59 -92 43 -22 82 20 46 50
-26 22 -18 78 21 142 57 94 56 171 -4 218 -29 23 -42 25 -66 7z"/>
<path d="M1254 426 c-19 -14 -19 -15 3 -38 42 -45 40 -78 -11 -171 -51 -94
-55 -117 -26 -164 25 -42 52 -56 84 -43 31 11 32 21 6 45 -31 28 -26 78 16
147 57 94 56 171 -4 218 -29 24 -42 25 -68 6z"/>
<path d="M1615 426 c-18 -13 -18 -15 9 -47 36 -43 32 -82 -18 -164 -45 -75
-53 -113 -32 -153 16 -31 52 -62 71 -62 6 0 20 6 30 14 18 13 18 14 -3 41 -31
39 -28 67 18 150 53 97 55 148 6 199 -36 39 -52 43 -81 22z"/>
<path d="M1983 433 c-19 -7 -16 -31 7 -60 27 -34 25 -69 -5 -123 -60 -106 -68
-130 -56 -171 11 -37 51 -79 75 -79 7 0 21 6 31 14 18 13 18 14 -3 41 -31 39
-28 67 17 149 56 101 58 146 10 201 -29 33 -48 40 -76 28z"/>
</g>
</svg>
