<?xml version="1.0" standalone="no"?>
<!DOCTYPE svg PUBLIC "-//W3C//DTD SVG 20010904//EN"
 "http://www.w3.org/TR/2001/REC-SVG-20010904/DTD/svg10.dtd">
<svg version="1.0" xmlns="http://www.w3.org/2000/svg"
 width="171.000000pt" height="294.000000pt" viewBox="0 0 171.000000 294.000000"
 preserveAspectRatio="xMidYMid meet">

<g transform="translate(0.000000,294.000000) scale(0.100000,-0.100000)"
fill="#000000" stroke="none">
<path d="M80 2922 c-22 -12 -44 -35 -57 -62 l-23 -44 0 -1261 c0 -1208 1
-1262 19 -1301 26 -57 83 -84 179 -84 l72 0 0 -50 c0 -41 5 -56 29 -82 25 -28
36 -33 76 -33 40 0 51 5 76 33 24 26 29 41 29 82 l0 50 375 0 375 0 0 -40 c0
-82 57 -138 127 -125 55 10 83 47 83 111 l0 54 72 0 c96 0 149 25 177 84 21
42 21 51 21 1302 l0 1260 -22 44 c-44 85 6 80 -833 80 -697 0 -742 -1 -775
-18z m1508 -444 l2 -338 -735 0 -735 0 0 333 c0 184 3 337 7 340 3 4 333 6
732 5 l726 -3 3 -337z m0 -1315 l-3 -868 -730 0 -730 0 -3 868 -2 867 735 0
735 0 -2 -867z"/>
<path d="M264 2729 c-17 -19 -19 -38 -19 -219 0 -181 2 -200 19 -219 24 -26
50 -27 76 -1 19 19 20 33 20 220 0 187 -1 201 -20 220 -26 26 -52 25 -76 -1z"/>
<path d="M259 1903 c-11 -12 -15 -70 -17 -252 -2 -130 0 -250 3 -268 11 -61
57 -81 95 -43 19 19 20 33 20 283 0 243 -1 265 -18 280 -24 22 -66 22 -83 0z"/>
</g>
</svg>
