<?xml version="1.0" standalone="no"?>
<!DOCTYPE svg PUBLIC "-//W3C//DTD SVG 20010904//EN"
 "http://www.w3.org/TR/2001/REC-SVG-20010904/DTD/svg10.dtd">
<svg version="1.0" xmlns="http://www.w3.org/2000/svg"
 width="860.000000pt" height="900.000000pt" viewBox="0 0 860.000000 900.000000"
 preserveAspectRatio="xMidYMid meet">

<g transform="translate(0.000000,900.000000) scale(0.100000,-0.100000)"
fill="#000000" stroke="none">
<path d="M2190 8584 c-285 -35 -484 -91 -705 -201 -397 -196 -715 -526 -925
-958 -126 -258 -214 -575 -241 -869 -14 -157 -7 -486 16 -670 47 -392 145
-828 320 -1431 346 -1192 363 -1262 516 -2180 73 -439 97 -551 149 -700 169
-479 513 -803 976 -919 164 -41 248 -50 444 -50 150 1 204 5 287 22 625 133
990 592 1085 1362 16 135 16 524 0 660 -7 58 -33 254 -58 435 -75 554 -85 665
-91 1036 -8 460 8 725 82 1434 116 1110 114 1543 -11 1923 -127 390 -388 706
-739 897 -157 86 -360 154 -570 191 -77 14 -462 27 -535 18z m545 -374 c516
-111 873 -440 995 -919 37 -145 50 -274 50 -501 0 -330 -18 -596 -85 -1230
-71 -676 -91 -1034 -82 -1475 7 -368 27 -578 107 -1153 47 -331 60 -466 60
-618 0 -744 -270 -1211 -772 -1335 -109 -26 -320 -36 -457 -20 -271 32 -469
121 -630 283 -123 123 -221 290 -284 483 -39 117 -50 173 -117 575 -158 944
-184 1056 -475 2080 -299 1051 -370 1398 -382 1860 -4 179 -2 252 12 360 73
578 371 1097 790 1375 172 115 400 206 595 239 52 8 106 18 120 20 14 2 122 3
240 1 174 -2 234 -7 315 -25z"/>
<path d="M2119 7475 c-522 -416 -824 -1003 -926 -1800 -22 -176 -25 -761 -5
-950 46 -427 148 -892 245 -1122 85 -202 255 -374 384 -390 69 -8 115 10 161
62 98 112 78 284 -43 362 -99 65 -116 79 -161 138 -111 144 -185 369 -231 695
-25 179 -25 732 0 945 92 771 317 1332 638 1586 l37 29 94 -107 c494 -563 749
-1073 824 -1643 22 -171 15 -504 -15 -676 -38 -220 -89 -401 -166 -584 -89
-210 -5 -460 154 -460 103 0 181 99 231 293 27 106 68 445 80 659 16 294 14
823 -5 963 -49 375 -161 737 -340 1100 -209 427 -463 733 -762 921 -47 30 -89
54 -93 54 -3 0 -49 -34 -101 -75z"/>
<path d="M5940 8574 c-743 -99 -1275 -584 -1420 -1292 -37 -182 -43 -289 -37
-627 7 -349 17 -493 77 -1075 77 -748 96 -1070 87 -1480 -6 -295 -22 -473 -73
-850 -19 -140 -46 -343 -61 -450 -23 -169 -26 -231 -27 -470 -1 -174 4 -308
12 -365 77 -540 263 -899 587 -1127 256 -181 594 -263 949 -229 555 53 964
330 1184 802 98 209 128 325 207 799 151 909 192 1088 444 1960 269 927 352
1282 407 1750 24 202 24 582 0 745 -66 456 -241 870 -503 1195 -79 97 -257
270 -353 341 -278 208 -617 340 -972 378 -131 15 -380 12 -508 -5z m635 -364
c329 -70 567 -200 805 -439 237 -238 385 -494 484 -838 65 -225 81 -347 80
-623 0 -484 -70 -837 -389 -1955 -278 -975 -309 -1111 -461 -2014 -79 -474
-87 -512 -135 -648 -146 -412 -417 -652 -819 -724 -112 -20 -415 -18 -512 3
-492 110 -766 525 -796 1208 -4 86 -4 210 0 277 7 126 14 181 72 603 125 907
126 1372 6 2520 -22 206 -47 463 -56 570 -20 245 -31 663 -22 829 19 359 141
654 363 876 199 199 454 323 765 371 133 21 487 11 615 -16z"/>
<path d="M6315 7509 c-531 -309 -989 -1130 -1122 -2014 -15 -101 -18 -179 -16
-500 2 -430 12 -615 49 -895 38 -287 80 -413 164 -495 65 -64 144 -63 212 2
61 60 83 121 83 238 0 88 -3 108 -29 165 -147 335 -226 800 -197 1150 48 562
263 1059 689 1590 112 140 231 270 247 270 24 0 170 -147 232 -235 292 -410
481 -1213 460 -1955 -18 -626 -151 -1032 -385 -1174 -101 -61 -132 -113 -132
-219 0 -162 124 -261 267 -213 99 33 229 167 307 316 95 181 204 623 255 1030
142 1147 -95 2087 -677 2691 -94 98 -244 229 -309 270 l-28 18 -70 -40z"/>
</g>
</svg>
