<?xml version="1.0" standalone="no"?>
<!DOCTYPE svg PUBLIC "-//W3C//DTD SVG 20010904//EN"
 "http://www.w3.org/TR/2001/REC-SVG-20010904/DTD/svg10.dtd">
<svg version="1.0" xmlns="http://www.w3.org/2000/svg"
 width="512.000000pt" height="512.000000pt" viewBox="0 0 512.000000 512.000000"
 preserveAspectRatio="xMidYMid meet">

<g transform="translate(0.000000,512.000000) scale(0.100000,-0.100000)"
fill="#000000" stroke="none">
<path d="M373 5096 l-28 -24 0 -2512 0 -2512 28 -24 28 -24 2159 0 2159 0 28
24 28 24 0 2512 0 2512 -28 24 -28 24 -2159 0 -2159 0 -28 -24z m4237 -230 l0
-83 -246 -7 c-136 -4 -1058 -4 -2050 0 l-1804 7 0 84 0 83 2050 0 2050 0 0
-84z m-2140 -2306 l0 -2040 -980 0 -980 0 0 2040 0 2040 980 0 980 0 0 -2040z
m1800 1960 l0 -80 -336 0 -335 0 -37 29 c-91 71 -212 69 -308 -4 l-33 -25
-285 0 -286 0 0 80 0 80 810 0 810 0 0 -80z m340 -1960 l0 -2040 -85 0 -85 0
0 2040 0 2040 85 0 85 0 0 -2040z m-1452 1663 l3 -43 85 0 84 0 0 45 0 45 85
0 85 0 0 -27 c0 -20 -21 -48 -85 -114 -70 -71 -85 -92 -85 -118 0 -30 -4 -33
-232 -147 -128 -64 -243 -125 -255 -137 -21 -19 -23 -29 -23 -142 0 -118 1
-122 26 -146 l26 -24 561 -3 c393 -2 574 0 600 8 56 16 70 56 65 182 -3 89 -5
100 -28 122 -14 13 -144 75 -290 137 -146 62 -267 114 -269 116 -3 2 27 36 66
76 85 86 93 101 93 166 l0 51 298 -2 297 -3 3 -1192 2 -1193 -810 0 -810 0 0
1195 0 1195 253 -2 252 -3 3 -42z m514 -502 c158 -67 253 -113 253 -122 0 -12
-75 -14 -467 -17 -580 -3 -565 -11 -260 142 114 58 210 105 214 105 3 1 120
-48 260 -108z m596 -2098 l3 -83 -811 0 -810 0 0 85 0 85 808 -2 807 -3 3 -82z
m0 -680 l2 -423 -95 0 c-66 0 -94 3 -90 11 11 17 7 121 -6 154 -7 16 -21 42
-31 57 -18 26 -18 27 6 63 65 95 49 230 -36 315 -69 70 -68 70 -519 70 l-407
0 -53 -28 c-133 -69 -178 -241 -95 -363 23 -34 23 -35 5 -58 -30 -37 -51 -124
-44 -176 l7 -45 -131 0 -131 0 0 425 0 425 808 -2 807 -3 3 -422z m-371 55
c16 -15 23 -33 23 -57 -1 -43 -17 -66 -54 -81 -38 -14 -693 -14 -735 1 -43 15
-66 60 -52 101 21 58 13 57 420 58 371 0 375 0 398 -22z m-2 -343 c31 -30 33
-82 5 -113 -21 -22 -23 -22 -404 -22 -373 0 -383 1 -401 20 -27 30 -24 84 5
115 l23 25 374 0 374 0 24 -25z m715 -400 l0 -85 -2050 0 -2050 0 0 85 0 85
2050 0 2050 0 0 -85z"/>
<path d="M680 4355 l0 -85 85 0 85 0 0 85 0 85 -85 0 -85 0 0 -85z"/>
<path d="M685 4087 c-3 -7 -4 -123 -3 -257 l3 -245 83 -3 82 -3 0 261 0 260
-80 0 c-56 0 -82 -4 -85 -13z"/>
<path d="M2135 2807 c-3 -7 -4 -123 -3 -257 l3 -245 83 -3 82 -3 0 261 0 260
-80 0 c-56 0 -82 -4 -85 -13z"/>
</g>
</svg>
