<?xml version="1.0" standalone="no"?>
<!DOCTYPE svg PUBLIC "-//W3C//DTD SVG 20010904//EN"
 "http://www.w3.org/TR/2001/REC-SVG-20010904/DTD/svg10.dtd">
<svg version="1.0" xmlns="http://www.w3.org/2000/svg"
 width="640.000000pt" height="640.000000pt" viewBox="0 0 640.000000 640.000000"
 preserveAspectRatio="xMidYMid meet">

<g transform="translate(0.000000,640.000000) scale(0.100000,-0.100000)"
fill="#000000" stroke="none">
<path d="M3000 5104 c-440 -42 -782 -138 -1135 -317 -375 -192 -685 -453 -946
-797 -90 -119 -111 -164 -110 -242 0 -114 72 -212 178 -244 73 -22 123 -18
191 17 53 26 70 42 124 117 220 305 502 542 843 708 520 253 1101 310 1675
164 506 -128 936 -414 1254 -833 95 -125 135 -159 209 -178 120 -30 243 33
296 151 26 57 27 141 2 195 -66 147 -372 486 -591 656 -407 317 -873 509
-1415 584 -107 15 -485 27 -575 19z"/>
<path d="M3020 4284 c-145 -18 -262 -39 -361 -64 -528 -133 -981 -471 -1262
-937 -82 -138 -95 -220 -47 -313 49 -97 135 -145 248 -138 111 6 149 35 247
190 126 199 240 324 405 444 193 140 413 234 663 281 129 24 456 24 582 0 473
-92 851 -353 1083 -750 71 -122 139 -167 251 -167 105 0 211 75 239 169 32
104 7 188 -104 356 -326 496 -825 812 -1438 911 -88 14 -435 27 -506 18z"/>
<path d="M2954 3335 c-271 -40 -530 -146 -750 -308 -156 -114 -391 -381 -434
-492 -16 -42 -15 -134 3 -176 37 -88 135 -157 238 -166 46 -5 66 -1 112 20 56
25 67 37 177 188 136 186 398 352 640 404 115 25 345 31 456 11 247 -43 453
-146 613 -307 42 -41 94 -102 116 -133 101 -146 150 -180 260 -180 107 0 192
51 239 146 52 105 32 192 -82 344 -161 217 -350 374 -597 494 -177 87 -345
137 -535 160 -114 14 -344 11 -456 -5z"/>
<path d="M3090 2344 c-138 -36 -266 -133 -337 -254 -39 -67 -73 -192 -73 -270
0 -257 183 -482 435 -535 88 -18 132 -18 220 0 109 23 190 68 271 150 82 82
126 164 149 270 27 129 15 226 -45 351 -90 186 -281 305 -490 303 -41 0 -100
-7 -130 -15z"/>
</g>
</svg>
